<?xml version="1.0" encoding="UTF-8"?>
<!DOCTYPE svg PUBLIC "-//W3C//DTD SVG 1.1//EN" "http://www.w3.org/Graphics/SVG/1.1/DTD/svg11.dtd">
<!-- Creator: CorelDRAW 2019 (64-Bit) -->
<svg xmlns="http://www.w3.org/2000/svg" xml:space="preserve" width="105mm" height="35.4645mm" version="1.1" style="shape-rendering:geometricPrecision; text-rendering:geometricPrecision; image-rendering:optimizeQuality; fill-rule:evenodd; clip-rule:evenodd"
viewBox="0 0 9982.02 3371.51"
 xmlns:xlink="http://www.w3.org/1999/xlink"
 xmlns:xodm="http://www.corel.com/coreldraw/odm/2003">
 <defs>
  <style type="text/css">
   <![CDATA[
    .fil1 {fill:#2B2A29;fill-rule:nonzero}
    .fil0 {fill:url(#id0);fill-rule:nonzero}
   ]]>
  </style>
  <linearGradient id="id0" gradientUnits="userSpaceOnUse" x1="1908.48" y1="0" x2="1757.53" y2="3130.45">
   <stop offset="0" style="stop-opacity:1; stop-color:#E31E24"/>
   <stop offset="1" style="stop-opacity:1; stop-color:#750000"/>
  </linearGradient>
 </defs>
 <g id="Слой_x0020_1">
  <metadata id="CorelCorpID_0Corel-Layer"/>
  <path class="fil0" d="M1942.64 3221.18l-1942.64 0 2068.09 -2593.5 800.82 2035.33 -1674.46 -2.78 246.25 -364.9 891.28 1.64 -372.48 -946.7 -1199.77 1504.56 1425.21 0 -242.3 366.33zm-34.18 -3221.18c125.17,0 246.76,15.44 362.97,44.48l-260.34 326.48c-33.8,-3.05 -68.02,-4.63 -102.62,-4.63 -311.06,0 -592.66,126.06 -796.46,329.87 -203.8,203.8 -329.88,485.4 -329.88,796.46 0,122.18 19.47,239.81 55.44,349.96l-260.14 326.21c-103.35,-203.01 -161.61,-432.79 -161.61,-676.17 0,-412.15 167.07,-785.32 437.2,-1055.44 270.12,-270.12 643.3,-437.22 1055.45,-437.22z"/>
  <path class="fil1" d="M3427.49 1609.37c-19.7,0 -29.55,9.85 -29.55,29.55l0 137.89c0,21.34 9.85,29.55 29.55,29.55l686.15 0c142.81,0 178.93,41.04 178.93,146.1l0 31.19 -668.09 0c-193.7,0 -252.79,77.15 -252.79,215.03l0 78.79c0,162.51 59.09,233.09 252.79,233.09l781.36 0c95.21,0 121.48,-24.62 121.48,-131.32l0 -436.64c0,-238.02 -95.21,-333.23 -390.68,-333.23l-709.13 0zm817.47 720.63l-553.19 0c-67.31,0 -91.93,-26.27 -91.93,-85.36l0 -34.47c0,-52.53 24.62,-80.44 91.93,-80.44l600.79 0 0 144.45c0,41.04 -13.13,55.81 -47.6,55.81zm809.26 -720.63c-295.47,0 -390.68,95.21 -390.68,333.23l0 236.37c0,238.02 95.21,331.58 390.68,331.58l659.89 0c19.7,0 29.55,-9.85 29.55,-29.55l0 -137.89c0,-19.7 -9.85,-29.55 -29.55,-29.55l-636.91 0c-142.81,0 -178.92,-42.69 -178.92,-180.57l0 -146.09c0,-137.89 36.11,-180.57 178.92,-180.57l636.91 0c19.7,0 29.55,-8.2 29.55,-29.55l0 -137.89c0,-19.7 -9.85,-29.55 -29.55,-29.55l-659.89 0zm996.4 0c-109.98,0 -152.67,44.32 -152.67,139.53l0 725.54c0,24.62 13.14,36.12 37.76,36.12l160.86 0c24.62,0 36.12,-11.49 36.12,-36.12l0 -622.13c0,-24.62 9.85,-34.47 34.47,-34.47l679.59 0c24.62,0 34.47,9.85 34.47,34.47l0 622.13c0,24.62 11.48,36.12 36.11,36.12l160.87 0c24.62,0 37.75,-11.49 37.75,-36.12l0 -725.54c0,-95.21 -42.68,-139.53 -152.66,-139.53l-912.67 0zm1656.27 0c-295.47,0 -390.68,95.21 -390.68,333.23l0 894.62c0,24.62 13.13,36.12 37.75,36.12l160.87 0c24.62,0 36.12,-11.49 36.12,-36.12l0 -326.66 615.56 0c295.47,0 390.68,-93.57 390.68,-331.58l0 -236.37c0,-238.02 -95.21,-333.23 -390.68,-333.23l-459.62 0zm-155.94 377.55c0,-137.89 37.75,-180.57 178.92,-180.57l413.67 0c142.81,0 180.56,42.69 180.56,180.57l0 146.09c0,139.53 -37.75,180.57 -180.56,180.57l-592.58 0 0 -326.66zm1575.84 -377.55c-295.47,0 -390.68,95.21 -390.68,333.23l0 236.37c0,238.02 95.21,331.58 390.68,331.58l464.55 0c295.47,0 390.68,-93.57 390.68,-331.58l0 -236.37c0,-238.02 -95.21,-333.23 -390.68,-333.23l-464.55 0zm-155.94 372.62c0,-137.89 37.75,-178.93 178.92,-178.93l418.59 0c142.81,0 180.56,41.04 180.56,178.93l0 155.94c0,137.89 -37.75,180.57 -180.56,180.57l-418.59 0c-141.17,0 -178.92,-42.69 -178.92,-180.57l0 -155.94z"/>
  <path class="fil1" d="M3518.16 3287.43c42.3,0 77.89,-10.31 112.97,-43.84l-25.28 -28.89c-17.03,18.58 -44.36,38.18 -86.14,38.18 -60.35,0 -103.68,-39.21 -103.68,-103.68 0,-63.45 42.3,-102.65 103.17,-102.65 41.26,0 67.05,18.05 86.14,37.66l24.24 -28.88c-30.95,-29.92 -67.57,-43.33 -111.93,-43.33 -88.2,0 -145.98,54.67 -145.98,137.72 0,85.63 60.86,137.72 146.49,137.72zm237.27 -3.61l42.3 0 0 -235.73 96.46 0 0 -32.49 -235.73 0 0 32.49 96.97 0 0 235.73zm340.96 -271.83c-42.3,0 -86.66,17.54 -107.81,56.74l-4.65 -53.12 -36.62 0 0 355.91 42.82 0 0 -135.15c21.14,33.02 60.35,51.07 105.73,51.07 86.66,0 135.66,-60.87 135.66,-137.72 0,-76.86 -48.48,-137.72 -135.14,-137.72zm-8.25 240.37c-56.23,0 -99.04,-43.32 -99.04,-102.64 0,-61.38 43.84,-102.64 99.55,-102.64 58.8,0 99.03,39.71 99.03,102.64 0,62.92 -40.23,102.64 -99.54,102.64zm335.79 35.59c83.05,0 143.91,-53.65 143.91,-137.72 0,-84.08 -60.86,-138.24 -143.91,-138.24 -84.08,0 -144.43,53.13 -144.43,138.24 0,84.08 60.86,137.72 144.43,137.72zm0 -35.59c-58.29,0 -100.58,-38.17 -100.58,-102.13 0,-63.96 42.3,-103.16 100.58,-103.16 57.77,0 100.58,39.2 100.58,103.16 0,63.96 -42.81,102.13 -100.58,102.13zm208.39 31.47l39.21 0 161.44 -214.58 1.04 0.51c-1.55,31.47 -1.55,62.41 -2.06,89.75l0 124.31 40.23 0 0 -268.22 -38.68 0 -161.45 212.51 -1.04 -0.51c1.04,-24.76 1.55,-51.07 2.06,-76.86l0 -135.14 -40.75 0 0 268.22zm390.46 0l42.3 0 0 -235.73 96.46 0 0 -32.49 -235.73 0 0 32.49 96.97 0 0 235.73zm434.31 -150.1c0,-75.83 -49.01,-121.73 -126.37,-121.73 -89.24,0 -139.79,57.77 -139.79,137.72 0,82.01 52.1,137.72 149.07,137.72 38.69,0 75.83,-9.8 112.45,-41.27l-20.12 -28.88c-20.13,19.08 -49.01,38.17 -92.34,38.17 -56.22,0 -101.09,-28.37 -104.71,-92.33l219.74 0c1.55,-10.32 2.06,-20.64 2.06,-29.4zm-126.37 -90.78c51.06,0 82.53,32.49 82.53,83.04 0,2.58 0,5.16 -0.51,7.74l-176.93 0c3.61,-58.29 40.76,-90.78 94.91,-90.78zm188.26 242.94c65,0 84.08,-52.61 87.18,-160.42 0.51,-23.73 1.03,-50.03 1.03,-79.44l113.48 0 0 237.79 42.3 0 0 -268.22 -198.59 0c0,40.23 1.03,76.85 0,106.77 -3.61,94.39 -13.93,129.99 -57.26,129.99 -4.64,0 -10.31,-0.51 -15.48,-1.55l-1.03 33.02c7.74,1.04 18.05,2.06 28.37,2.06zm328.05 -2.06l126.9 0c61.9,0 100.07,-31.98 100.07,-84.08 0,-53.13 -40.76,-83.05 -99.55,-83.05l-84.59 0 0 -101.09 -42.82 0 0 268.22zm42.82 -28.37l0 -109.87 76.85 0c40.23,0 64.47,18.05 64.47,54.16 0,37.14 -24.24,55.71 -64.47,55.71l-76.85 0zm245 28.37l42.82 0 0 -117.61 153.19 0 0 117.61 42.82 0 0 -268.22 -42.82 0 0 116.57 -153.19 0 0 -116.57 -42.82 0 0 268.22zm548.65 -268.22l-2.58 54.16c-19.09,-37.66 -58.8,-58.29 -107.72,-58.29 -83.99,0 -134.54,59.84 -134.54,139.26 0,78.41 49,137.21 132.48,137.21 44.79,0 88.12,-17.54 109.27,-61.9l3.61 57.77 38.77 0 0 -268.22 -39.29 0zm-101.01 236.76c-58.81,0 -99.47,-39.2 -99.47,-102.13 0,-64.47 40.66,-103.16 99.47,-103.16 55.62,0 98.43,42.3 98.43,103.16 0,61.9 -44.87,102.13 -98.43,102.13zm310.59 -236.76c-63.96,0 -103.16,36.11 -103.16,88.72 0,41.27 23.73,72.21 64.99,83.56l-70.66 95.94 47.97 0 64.47 -90.78 82.53 0 0 90.78 42.3 0 0 -268.22 -128.44 0zm86.14 149.59l-78.92 0c-41.78,0 -67.06,-23.73 -67.06,-60.87 0,-37.13 25.28,-60.35 67.06,-60.35l78.92 0 0 121.22zm618.97 118.63l-110.9 -137.04 107.29 -131.18 -47.46 0 -92.33 116.31 -47.46 -0.51 0 -115.8 -41.78 0 0 268.22 41.78 0 0 -118.63 48.48 0 92.85 118.63 49.51 0zm160.93 4.13c83.05,0 143.91,-53.65 143.91,-137.72 0,-84.08 -60.86,-138.24 -143.91,-138.24 -84.08,0 -144.43,53.13 -144.43,138.24 0,84.08 60.86,137.72 144.43,137.72zm0 -35.59c-58.29,0 -100.58,-38.17 -100.58,-102.13 0,-63.96 42.3,-103.16 100.58,-103.16 57.77,0 100.58,39.2 100.58,103.16 0,63.96 -42.81,102.13 -100.58,102.13zm480.74 -236.76l-116.06 158.35 -116.06 -158.35 -40.23 0 0 268.22 40.23 0 0 -123.28c0,-31.98 -1.03,-55.71 -2.06,-86.65l1.04 0 112.96 152.16 8.25 0 108.84 -151.65 1.03 0c-1.54,31.47 -2.58,56.22 -2.58,88.73l0 120.7 42.3 0 0 -268.22 -37.66 0zm123.27 268.22l42.3 0 0 -236.76 152.69 0 0 236.76 42.3 0 0 -268.22 -237.28 0 0 268.22zm549.16 -268.22l-2.58 54.16c-19.09,-37.66 -58.8,-58.29 -107.72,-58.29 -83.99,0 -134.54,59.84 -134.54,139.26 0,78.41 49,137.21 132.48,137.21 44.79,0 88.12,-17.54 109.27,-61.9l3.61 57.77 38.77 0 0 -268.22 -39.29 0zm-101.01 236.76c-58.81,0 -99.47,-39.2 -99.47,-102.13 0,-64.47 40.66,-103.16 99.47,-103.16 55.62,0 98.43,42.3 98.43,103.16 0,61.9 -44.87,102.13 -98.43,102.13zm220.33 31.47l42.82 0 0 -117.61 153.19 0 0 117.61 42.82 0 0 -268.22 -42.82 0 0 116.57 -153.19 0 0 -116.57 -42.82 0 0 268.22zm322.38 0l39.21 0 161.44 -214.58 1.04 0.51c-1.55,31.47 -1.55,62.41 -2.06,89.75l0 124.31 40.23 0 0 -268.22 -38.68 0 -161.45 212.51 -1.04 -0.51c1.04,-24.76 1.55,-51.07 2.06,-76.86l0 -135.14 -40.75 0 0 268.22zm414.19 -268.22c-63.96,0 -103.16,36.11 -103.16,88.72 0,41.27 23.73,72.21 64.99,83.56l-70.66 95.94 47.97 0 64.47 -90.78 82.53 0 0 90.78 42.3 0 0 -268.22 -128.44 0zm86.14 149.59l-78.92 0c-41.78,0 -67.06,-23.73 -67.06,-60.87 0,-37.13 25.28,-60.35 67.06,-60.35l78.92 0 0 121.22z"/>
 </g>
</svg>
